<svg xmlns="http://www.w3.org/2000/svg" width="2048" height="1024" viewBox="0 0 2048 1024">
  <rect width="2048" height="1024" fill="#9dd7f0"/>
  <g fill="#d8e6a6" stroke="#7aa06b" stroke-width="8" stroke-linejoin="round" opacity="0.96">
    <path d="M284 168c92-54 218-60 312-12 66 34 82 88 36 130-42 38-118 48-172 92-50 40-42 108-108 128-76 24-178-22-210-92-28-62 8-128 70-162 32-18 38-64 72-84z"/>
    <path d="M612 414c70-20 142 18 160 76 20 64-32 132-110 150-82 20-166-20-184-88-18-66 42-118 134-138z"/>
    <path d="M952 144c118-30 284 16 346 112 56 86 8 166-102 190-112 24-216-26-306-10-88 16-142 90-228 54-70-30-82-116-20-178 66-66 188-136 310-168z"/>
    <path d="M1178 420c86-12 176 36 202 108 28 76-22 148-110 158-88 10-166-46-202-112-38-70 20-142 110-154z"/>
    <path d="M1458 164c126-54 314-42 400 38 72 68 48 164-58 206-82 32-162 10-240 26-74 16-132 68-210 30-82-40-76-142 0-214 30-28 64-64 108-86z"/>
    <path d="M1562 512c76-28 176-2 218 60 44 64 10 142-72 166-82 26-180-6-218-70-36-62-6-128 72-156z"/>
    <path d="M1030 706c56-20 122 0 154 46 36 52 16 116-42 138-62 24-132 2-164-50-30-50-6-112 52-134z"/>
  </g>
  <g fill="none" stroke="#f7fbff" stroke-width="3" opacity="0.24">
    <path d="M0 180c310 50 510 50 790-4s480-54 720 6 356 54 538 4"/>
    <path d="M0 700c300-54 572-42 812 18 282 70 548 58 768-28 194-76 332-80 468-32"/>
  </g>
</svg>
